<svg xmlns="http://www.w3.org/2000/svg" xmlns:xlink="http://www.w3.org/1999/xlink" viewBox="0 0 189.86 128.94"><defs><style>.cls-1{fill:url(#linear-gradient);}.cls-2{fill:url(#linear-gradient-2);}.cls-3{fill:url(#linear-gradient-3);}.cls-4{fill:url(#linear-gradient-4);}.cls-5{fill:url(#linear-gradient-5);}.cls-6{fill:url(#linear-gradient-6);}.cls-7{fill:url(#linear-gradient-7);}.cls-8{fill:url(#linear-gradient-8);}.cls-9{fill:url(#linear-gradient-9);}.cls-10{fill:url(#linear-gradient-10);}.cls-11{fill:url(#linear-gradient-11);}.cls-12{fill:url(#linear-gradient-12);}.cls-13{fill:url(#linear-gradient-13);}.cls-14{fill:url(#linear-gradient-14);}.cls-15{fill:url(#linear-gradient-15);}.cls-16{fill:url(#linear-gradient-16);}.cls-17{fill:url(#linear-gradient-17);}.cls-18{fill:url(#linear-gradient-18);}.cls-19{fill:url(#linear-gradient-19);}.cls-20{fill:url(#linear-gradient-20);}.cls-21{fill:url(#linear-gradient-21);}.cls-22{fill:url(#linear-gradient-22);}.cls-23{fill:url(#linear-gradient-23);}.cls-24{fill:url(#linear-gradient-24);}.cls-25{fill:url(#linear-gradient-25);}.cls-26{fill:url(#linear-gradient-26);}.cls-27{fill:url(#linear-gradient-27);}.cls-28{fill:url(#linear-gradient-28);}.cls-29{fill:url(#linear-gradient-29);}.cls-30{fill:url(#linear-gradient-30);}.cls-31{fill:url(#linear-gradient-31);}.cls-32{fill:url(#linear-gradient-32);}.cls-33{fill:url(#linear-gradient-33);}.cls-34{fill:url(#linear-gradient-34);}.cls-35{fill:url(#linear-gradient-35);}.cls-36{fill:url(#linear-gradient-36);}.cls-37{fill:url(#linear-gradient-37);}.cls-38{fill:url(#linear-gradient-38);}.cls-39{fill:url(#linear-gradient-39);}.cls-40{fill:url(#linear-gradient-40);}.cls-41{fill:url(#linear-gradient-41);}.cls-42{fill:url(#linear-gradient-42);}.cls-43{fill:url(#linear-gradient-43);}.cls-44{fill:url(#linear-gradient-44);}.cls-45{fill:url(#linear-gradient-45);}.cls-46{fill:url(#linear-gradient-46);}.cls-47{fill:url(#linear-gradient-47);}.cls-48{fill:url(#linear-gradient-48);}</style><linearGradient id="linear-gradient" x1="-46.14" y1="41.6" x2="137.88" y2="-72.46" gradientUnits="userSpaceOnUse"><stop offset="0" stop-color="#041f36"/><stop offset="0.19" stop-color="#082038"/><stop offset="0.37" stop-color="#13233e"/><stop offset="0.56" stop-color="#272948"/><stop offset="0.74" stop-color="#423057"/><stop offset="0.91" stop-color="#653a69"/><stop offset="1" stop-color="#793f74"/></linearGradient><linearGradient id="linear-gradient-2" x1="-39.08" y1="53" x2="144.95" y2="-61.06" xlink:href="#linear-gradient"/><linearGradient id="linear-gradient-3" x1="-32.01" y1="64.4" x2="152.02" y2="-49.65" xlink:href="#linear-gradient"/><linearGradient id="linear-gradient-4" x1="-24.94" y1="75.81" x2="159.08" y2="-38.25" xlink:href="#linear-gradient"/><linearGradient id="linear-gradient-5" x1="-17.87" y1="87.21" x2="166.15" y2="-26.85" xlink:href="#linear-gradient"/><linearGradient id="linear-gradient-6" x1="-10.81" y1="98.61" x2="173.22" y2="-15.45" xlink:href="#linear-gradient"/><linearGradient id="linear-gradient-7" x1="-3.74" y1="110.01" x2="180.29" y2="-4.05" xlink:href="#linear-gradient"/><linearGradient id="linear-gradient-8" x1="3.33" y1="121.41" x2="187.35" y2="7.36" xlink:href="#linear-gradient"/><linearGradient id="linear-gradient-9" x1="-36.03" y1="57.91" x2="147.99" y2="-56.15" xlink:href="#linear-gradient"/><linearGradient id="linear-gradient-10" x1="-28.97" y1="69.31" x2="155.06" y2="-44.75" xlink:href="#linear-gradient"/><linearGradient id="linear-gradient-11" x1="-21.9" y1="80.72" x2="162.13" y2="-33.34" xlink:href="#linear-gradient"/><linearGradient id="linear-gradient-12" x1="-14.83" y1="92.12" x2="169.19" y2="-21.94" xlink:href="#linear-gradient"/><linearGradient id="linear-gradient-13" x1="-7.76" y1="103.52" x2="176.26" y2="-10.54" xlink:href="#linear-gradient"/><linearGradient id="linear-gradient-14" x1="-0.7" y1="114.92" x2="183.33" y2="0.86" xlink:href="#linear-gradient"/><linearGradient id="linear-gradient-15" x1="6.37" y1="126.32" x2="190.39" y2="12.27" xlink:href="#linear-gradient"/><linearGradient id="linear-gradient-16" x1="13.44" y1="137.73" x2="197.46" y2="23.67" xlink:href="#linear-gradient"/><linearGradient id="linear-gradient-17" x1="-25.92" y1="74.22" x2="158.1" y2="-39.84" xlink:href="#linear-gradient"/><linearGradient id="linear-gradient-18" x1="-18.86" y1="85.62" x2="165.17" y2="-28.43" xlink:href="#linear-gradient"/><linearGradient id="linear-gradient-19" x1="-11.79" y1="97.03" x2="172.24" y2="-17.03" xlink:href="#linear-gradient"/><linearGradient id="linear-gradient-20" x1="-4.72" y1="108.43" x2="179.3" y2="-5.63" xlink:href="#linear-gradient"/><linearGradient id="linear-gradient-21" x1="2.35" y1="119.83" x2="186.37" y2="5.77" xlink:href="#linear-gradient"/><linearGradient id="linear-gradient-22" x1="9.41" y1="131.23" x2="193.44" y2="17.17" xlink:href="#linear-gradient"/><linearGradient id="linear-gradient-23" x1="16.48" y1="142.63" x2="200.5" y2="28.58" xlink:href="#linear-gradient"/><linearGradient id="linear-gradient-24" x1="23.54" y1="154.04" x2="207.57" y2="39.98" xlink:href="#linear-gradient"/><linearGradient id="linear-gradient-25" x1="-15.81" y1="90.53" x2="168.21" y2="-23.53" xlink:href="#linear-gradient"/><linearGradient id="linear-gradient-26" x1="-8.75" y1="101.93" x2="175.28" y2="-12.12" xlink:href="#linear-gradient"/><linearGradient id="linear-gradient-27" x1="-1.68" y1="113.34" x2="182.35" y2="-0.72" xlink:href="#linear-gradient"/><linearGradient id="linear-gradient-28" x1="5.39" y1="124.74" x2="189.41" y2="10.68" xlink:href="#linear-gradient"/><linearGradient id="linear-gradient-29" x1="12.45" y1="136.14" x2="196.48" y2="22.08" xlink:href="#linear-gradient"/><linearGradient id="linear-gradient-30" x1="19.52" y1="147.54" x2="203.55" y2="33.48" xlink:href="#linear-gradient"/><linearGradient id="linear-gradient-31" x1="26.59" y1="158.94" x2="210.61" y2="44.89" xlink:href="#linear-gradient"/><linearGradient id="linear-gradient-32" x1="33.65" y1="170.35" x2="217.68" y2="56.29" xlink:href="#linear-gradient"/><linearGradient id="linear-gradient-33" x1="-5.71" y1="106.84" x2="178.32" y2="-7.21" xlink:href="#linear-gradient"/><linearGradient id="linear-gradient-34" x1="1.36" y1="118.25" x2="185.39" y2="4.19" xlink:href="#linear-gradient"/><linearGradient id="linear-gradient-35" x1="8.43" y1="129.65" x2="192.46" y2="15.59" xlink:href="#linear-gradient"/><linearGradient id="linear-gradient-36" x1="15.49" y1="141.05" x2="199.52" y2="26.99" xlink:href="#linear-gradient"/><linearGradient id="linear-gradient-37" x1="22.56" y1="152.45" x2="206.59" y2="38.39" xlink:href="#linear-gradient"/><linearGradient id="linear-gradient-38" x1="29.63" y1="163.85" x2="213.66" y2="49.8" xlink:href="#linear-gradient"/><linearGradient id="linear-gradient-39" x1="36.7" y1="175.25" x2="220.72" y2="61.2" xlink:href="#linear-gradient"/><linearGradient id="linear-gradient-40" x1="43.76" y1="186.66" x2="227.79" y2="72.6" xlink:href="#linear-gradient"/><linearGradient id="linear-gradient-41" x1="4.4" y1="123.15" x2="188.43" y2="9.1" xlink:href="#linear-gradient"/><linearGradient id="linear-gradient-42" x1="11.47" y1="134.56" x2="195.5" y2="20.5" xlink:href="#linear-gradient"/><linearGradient id="linear-gradient-43" x1="18.54" y1="145.96" x2="202.56" y2="31.9" xlink:href="#linear-gradient"/><linearGradient id="linear-gradient-44" x1="25.6" y1="157.36" x2="209.63" y2="43.3" xlink:href="#linear-gradient"/><linearGradient id="linear-gradient-45" x1="32.67" y1="168.76" x2="216.7" y2="54.7" xlink:href="#linear-gradient"/><linearGradient id="linear-gradient-46" x1="39.74" y1="180.16" x2="223.76" y2="66.11" xlink:href="#linear-gradient"/><linearGradient id="linear-gradient-47" x1="46.81" y1="191.56" x2="230.83" y2="77.51" xlink:href="#linear-gradient"/><linearGradient id="linear-gradient-48" x1="53.87" y1="202.97" x2="237.9" y2="88.91" xlink:href="#linear-gradient"/></defs><g id="Layer_2" data-name="Layer 2"><g id="Layer_1-2" data-name="Layer 1"><path class="cls-1" d="M8,0a8,8,0,1,0,8,8A8,8,0,0,0,8,0Z"/><path class="cls-2" d="M33.49.63A7.4,7.4,0,1,0,40.88,8,7.39,7.39,0,0,0,33.49.63Z"/><path class="cls-3" d="M59,1.27A6.76,6.76,0,1,0,65.71,8,6.76,6.76,0,0,0,59,1.27Z"/><circle class="cls-4" cx="84.42" cy="8.03" r="6.13"/><path class="cls-5" d="M109.88,2.54A5.49,5.49,0,1,0,115.37,8,5.49,5.49,0,0,0,109.88,2.54Z"/><path class="cls-6" d="M135.34,3.17A4.86,4.86,0,1,0,140.2,8,4.85,4.85,0,0,0,135.34,3.17Z"/><path class="cls-7" d="M160.81,3.8A4.23,4.23,0,1,0,165,8,4.23,4.23,0,0,0,160.81,3.8Z"/><path class="cls-8" d="M186.27,11.62A3.59,3.59,0,1,0,182.68,8,3.59,3.59,0,0,0,186.27,11.62Z"/><path class="cls-9" d="M8,22.58a8,8,0,1,0,8,8A8,8,0,0,0,8,22.58Z"/><path class="cls-10" d="M33.49,23.21a7.4,7.4,0,1,0,7.39,7.39A7.39,7.39,0,0,0,33.49,23.21Z"/><path class="cls-11" d="M59,23.84a6.76,6.76,0,1,0,6.76,6.76A6.76,6.76,0,0,0,59,23.84Z"/><path class="cls-12" d="M84.42,24.48a6.13,6.13,0,1,0,6.12,6.12A6.12,6.12,0,0,0,84.42,24.48Z"/><path class="cls-13" d="M109.88,25.11a5.49,5.49,0,1,0,5.49,5.49A5.49,5.49,0,0,0,109.88,25.11Z"/><path class="cls-14" d="M135.34,25.75a4.86,4.86,0,1,0,4.86,4.85A4.85,4.85,0,0,0,135.34,25.75Z"/><path class="cls-15" d="M160.81,26.38A4.23,4.23,0,1,0,165,30.6,4.23,4.23,0,0,0,160.81,26.38Z"/><path class="cls-16" d="M186.27,27a3.59,3.59,0,1,0,3.59,3.59A3.59,3.59,0,0,0,186.27,27Z"/><path class="cls-17" d="M8,45.15a8,8,0,1,0,8,8A8,8,0,0,0,8,45.15Z"/><path class="cls-18" d="M33.49,45.79a7.39,7.39,0,1,0,7.39,7.39A7.39,7.39,0,0,0,33.49,45.79Z"/><path class="cls-19" d="M59,46.42a6.76,6.76,0,1,0,6.76,6.76A6.76,6.76,0,0,0,59,46.42Z"/><circle class="cls-20" cx="84.42" cy="53.18" r="6.13"/><path class="cls-21" d="M109.88,47.69a5.49,5.49,0,1,0,5.49,5.49A5.49,5.49,0,0,0,109.88,47.69Z"/><path class="cls-22" d="M135.34,48.32a4.86,4.86,0,1,0,4.86,4.86A4.86,4.86,0,0,0,135.34,48.32Z"/><path class="cls-23" d="M160.81,49A4.22,4.22,0,1,0,165,53.18,4.23,4.23,0,0,0,160.81,49Z"/><path class="cls-24" d="M186.27,49.59a3.59,3.59,0,1,0,3.59,3.59A3.59,3.59,0,0,0,186.27,49.59Z"/><circle class="cls-25" cx="8.03" cy="75.76" r="8.03"/><circle class="cls-26" cx="33.49" cy="75.76" r="7.39"/><circle class="cls-27" cx="58.95" cy="75.76" r="6.76"/><path class="cls-28" d="M84.42,69.63a6.13,6.13,0,1,0,6.12,6.13A6.12,6.12,0,0,0,84.42,69.63Z"/><path class="cls-29" d="M109.88,70.26a5.5,5.5,0,1,0,5.49,5.5A5.49,5.49,0,0,0,109.88,70.26Z"/><path class="cls-30" d="M135.34,70.9a4.86,4.86,0,1,0,4.86,4.86A4.85,4.85,0,0,0,135.34,70.9Z"/><path class="cls-31" d="M160.81,71.53A4.23,4.23,0,1,0,165,75.76,4.23,4.23,0,0,0,160.81,71.53Z"/><path class="cls-32" d="M186.27,72.17a3.59,3.59,0,1,0,3.59,3.59A3.59,3.59,0,0,0,186.27,72.17Z"/><path class="cls-33" d="M8,90.31a8,8,0,1,0,8,8A8,8,0,0,0,8,90.31Z"/><path class="cls-34" d="M33.49,90.94a7.39,7.39,0,1,0,7.39,7.39A7.39,7.39,0,0,0,33.49,90.94Z"/><path class="cls-35" d="M59,91.57a6.76,6.76,0,1,0,6.76,6.76A6.76,6.76,0,0,0,59,91.57Z"/><circle class="cls-36" cx="84.42" cy="98.33" r="6.13"/><path class="cls-37" d="M109.88,92.84a5.49,5.49,0,1,0,5.49,5.49A5.49,5.49,0,0,0,109.88,92.84Z"/><path class="cls-38" d="M135.34,93.47a4.86,4.86,0,1,0,4.86,4.86A4.86,4.86,0,0,0,135.34,93.47Z"/><path class="cls-39" d="M160.81,94.11A4.23,4.23,0,1,0,165,98.33,4.23,4.23,0,0,0,160.81,94.11Z"/><path class="cls-40" d="M186.27,94.74a3.59,3.59,0,1,0,3.59,3.59A3.59,3.59,0,0,0,186.27,94.74Z"/><path class="cls-41" d="M8,112.88a8,8,0,1,0,8,8A8,8,0,0,0,8,112.88Z"/><path class="cls-42" d="M33.49,113.52a7.39,7.39,0,1,0,7.39,7.39A7.39,7.39,0,0,0,33.49,113.52Z"/><path class="cls-43" d="M59,114.15a6.76,6.76,0,1,0,6.76,6.76A6.76,6.76,0,0,0,59,114.15Z"/><path class="cls-44" d="M84.42,114.78a6.13,6.13,0,1,0,6.12,6.13A6.13,6.13,0,0,0,84.42,114.78Z"/><path class="cls-45" d="M109.88,115.42a5.49,5.49,0,1,0,5.49,5.49A5.49,5.49,0,0,0,109.88,115.42Z"/><path class="cls-46" d="M135.34,116.05a4.86,4.86,0,1,0,4.86,4.86A4.86,4.86,0,0,0,135.34,116.05Z"/><path class="cls-47" d="M160.81,116.68a4.23,4.23,0,1,0,4.22,4.23A4.24,4.24,0,0,0,160.81,116.68Z"/><path class="cls-48" d="M186.27,117.32a3.59,3.59,0,1,0,3.59,3.59A3.59,3.59,0,0,0,186.27,117.32Z"/></g></g></svg>